<?xml version="1.0" encoding="UTF-8" standalone="no"?>
<svg xmlns="http://www.w3.org/2000/svg" viewBox="0 0 24 24"><title>Quote 2</title><g id="Quote_2" data-name="Quote 2"><g id="_Group_" data-name="&lt;Group&gt;"><g id="_Group_2" data-name="&lt;Group&gt;"><path d="M4,20H9a2,2,0,0,0,2-2V13a2,2,0,0,0-2-2H4.09A6,6,0,0,1,10,6h.5a.5.5,0,0,0,.5-.5v-1a.5.5,0,0,0-.5-.5H10a8,8,0,0,0-8,8v6A2,2,0,0,0,4,20Z" style="fill:#fff"/><path d="M15,20h5a2,2,0,0,0,2-2V13a2,2,0,0,0-2-2H15.09A6,6,0,0,1,21,6h.5a.5.5,0,0,0,.5-.5v-1a.5.5,0,0,0-.5-.5H21a8,8,0,0,0-8,8v6A2,2,0,0,0,15,20Z" style="fill:#fff"/></g></g></g>
	<metadata>
		<rdf:RDF xmlns:rdf="http://www.w3.org/1999/02/22-rdf-syntax-ns#" xmlns:rdfs="http://www.w3.org/2000/01/rdf-schema#" xmlns:dc="http://purl.org/dc/elements/1.1/">
			<rdf:Description about="https://iconscout.com/legal#licenses" dc:title="quote; type; text; symbol; 2" dc:description="quote; type; text; symbol; 2" dc:publisher="Iconscout" dc:date="2017-02-21" dc:format="image/svg+xml" dc:language="en">
				<dc:creator>
					<rdf:Bag>
						<rdf:li>Alpár - Etele Méder</rdf:li>
					</rdf:Bag>
				</dc:creator>
			</rdf:Description>
		</rdf:RDF>
    </metadata></svg>
